<?xml version="1.0" encoding="UTF-8"?>
<svg width="240px" height="234px" viewBox="0 0 240 234" version="1.1" xmlns="http://www.w3.org/2000/svg" xmlns:xlink="http://www.w3.org/1999/xlink">
    <title>HTCR logotyp</title>
    <defs>
        <path d="M52.75,186 L52.75,170.7 L67.9,170.7 L67.9,186 L75.7,186 L75.7,150.6 L67.9,150.6 L67.9,163.8 L52.75,163.8 L52.75,150.6 L44.95,150.6 L44.95,186 L52.75,186 Z M103.8,186 L103.8,157.5 L113.9,157.5 L113.9,150.6 L85.9,150.6 L85.9,157.5 L96,157.5 L96,186 L103.8,186 Z M141.3,186.9 C143.733333,186.9 146.1,186.4 148.4,185.4 C150.7,184.4 152.6,182.85 154.1,180.75 L154.1,180.75 L147.6,175.9 C146.8,177.1 145.783333,178.033333 144.55,178.7 C143.316667,179.366667 141.9,179.7 140.3,179.7 C138.9,179.7 137.591667,179.416667 136.375,178.85 C135.158333,178.283333 134.1,177.491667 133.2,176.475 C132.3,175.458333 131.591667,174.258333 131.075,172.875 C130.558333,171.491667 130.3,169.966667 130.3,168.3 C130.3,166.666667 130.558333,165.15 131.075,163.75 C131.591667,162.35 132.308333,161.141667 133.225,160.125 C134.141667,159.108333 135.225,158.316667 136.475,157.75 C137.725,157.183333 139.083333,156.9 140.55,156.9 C142.016667,156.9 143.308333,157.15 144.425,157.65 C145.541667,158.15 146.483333,158.866667 147.25,159.8 L147.25,159.8 L153.25,154.9 C152.483333,153.933333 151.616667,153.116667 150.65,152.45 C149.683333,151.783333 148.675,151.25 147.625,150.85 C146.575,150.45 145.508333,150.158333 144.425,149.975 C143.341667,149.791667 142.3,149.7 141.3,149.7 C138.533333,149.7 135.983333,150.133333 133.65,151 C131.316667,151.866667 129.3,153.108333 127.6,154.725 C125.9,156.341667 124.575,158.3 123.625,160.6 C122.675,162.9 122.2,165.466667 122.2,168.3 C122.2,171.133333 122.675,173.7 123.625,176 C124.575,178.3 125.9,180.258333 127.6,181.875 C129.3,183.491667 131.316667,184.733333 133.65,185.6 C135.983333,186.466667 138.533333,186.9 141.3,186.9 Z M172.4,186 L172.4,171.85 L176.25,171.85 L183.65,186 L193,186 L184,171.05 C186.5,170.583333 188.4,169.475 189.7,167.725 C191,165.975 191.65,163.85 191.65,161.35 C191.65,159.283333 191.291667,157.558333 190.575,156.175 C189.858333,154.791667 188.891667,153.691667 187.675,152.875 C186.458333,152.058333 185.041667,151.475 183.425,151.125 C181.808333,150.775 180.1,150.6 178.3,150.6 L178.3,150.6 L164.6,150.6 L164.6,186 L172.4,186 Z M177,165.25 L172.4,165.25 L172.4,157.2 L177.5,157.2 C178.2,157.2 178.916667,157.25 179.65,157.35 C180.383333,157.45 181.033333,157.641667 181.6,157.925 C182.166667,158.208333 182.633333,158.616667 183,159.15 C183.366667,159.683333 183.55,160.4 183.55,161.3 C183.55,162.266667 183.341667,163.016667 182.925,163.55 C182.508333,164.083333 181.983333,164.475 181.35,164.725 C180.716667,164.975 180.008333,165.125 179.225,165.175 C178.441667,165.225 177.7,165.25 177,165.25 L177,165.25 Z" id="path-1"></path>
        <filter x="0.0%" y="0.0%" width="101.4%" height="105.4%" filterUnits="objectBoundingBox" id="filter-2">
            <feGaussianBlur stdDeviation="0" in="SourceGraphic"></feGaussianBlur>
        </filter>
        <filter x="-0.7%" y="-2.7%" width="102.7%" height="110.8%" filterUnits="objectBoundingBox" id="filter-3">
            <feOffset dx="1" dy="1" in="SourceAlpha" result="shadowOffsetOuter1"></feOffset>
            <feGaussianBlur stdDeviation="0.5" in="shadowOffsetOuter1" result="shadowBlurOuter1"></feGaussianBlur>
            <feColorMatrix values="0 0 0 0 0   0 0 0 0 0   0 0 0 0 0  0 0 0 0.5 0" type="matrix" in="shadowBlurOuter1"></feColorMatrix>
        </filter>
        <path d="M43.2321506,68.2435281 C39.1170375,69.5682445 35.0039645,68.0743275 32.3700473,65.4125142 C29.4137761,62.4164267 29.0791809,58.757981 28.9118833,54.5919337 L28.9118833,15.5623224 L50.3627012,-1.42108547e-14 L50.3627012,58.757981 C49.9587387,63.0148188 47.3431834,67.0735683 43.2321506,68.2435281 Z" id="path-4"></path>
        <filter x="-4.7%" y="-1.5%" width="109.3%" height="102.9%" filterUnits="objectBoundingBox" id="filter-5">
            <feGaussianBlur stdDeviation="0.5" in="SourceAlpha" result="shadowBlurInner1"></feGaussianBlur>
            <feOffset dx="1" dy="1" in="shadowBlurInner1" result="shadowOffsetInner1"></feOffset>
            <feComposite in="shadowOffsetInner1" in2="SourceAlpha" operator="arithmetic" k2="-1" k3="1" result="shadowInnerInner1"></feComposite>
            <feColorMatrix values="0 0 0 0 0   0 0 0 0 0   0 0 0 0 0  0 0 0 0.5 0" type="matrix" in="shadowInnerInner1"></feColorMatrix>
        </filter>
        <path d="M32.2068301,75.7213664 C38.7865227,79.055855 48.0021727,77.052273 53.1027096,72.2300578 C56.5527127,68.742876 58.8948793,63.9103436 59.2233539,58.5887805 L59.2233539,15.5623224 C66.131521,10.7277266 72.8315863,4.6509513 79.7438338,-1.42108547e-14 L79.7438338,61.413604 C78.0055709,75.5418487 69.8773553,87.208432 58.0359489,93.5245641 C47.6655373,99.5167392 30.2339424,99.1845284 20.1960858,92.5299951 C9.66449729,86.370683 1.64849352,75.0590082 0,62.2472262 L0,15.5623224 L20.5225202,1.40725323 L20.5225202,59.9155603 C21.5059037,66.9126214 26.1229097,72.8986062 32.2068301,75.7213664 Z" id="path-6"></path>
        <filter x="-1.3%" y="-1.0%" width="102.5%" height="102.0%" filterUnits="objectBoundingBox" id="filter-7">
            <feGaussianBlur stdDeviation="0.5" in="SourceAlpha" result="shadowBlurInner1"></feGaussianBlur>
            <feOffset dx="1" dy="1" in="shadowBlurInner1" result="shadowOffsetInner1"></feOffset>
            <feComposite in="shadowOffsetInner1" in2="SourceAlpha" operator="arithmetic" k2="-1" k3="1" result="shadowInnerInner1"></feComposite>
            <feColorMatrix values="0 0 0 0 0   0 0 0 0 0   0 0 0 0 0  0 0 0 0.5 0" type="matrix" in="shadowInnerInner1"></feColorMatrix>
        </filter>
    </defs>
    <g id="HTCR-logo" stroke="none" stroke-width="1" fill="none" fill-rule="evenodd">
        <g id="HTCR-logotyp">
            <path d="M41.8945,7.4536 C13.7617,7.4536 7.2695,24.1983 7.2695,52.35 L7.3828,188.9868 C7.3828,217.1488 16.164,226.5465 44.2851,226.5465 L195.0488,226.5465 C223.1679,226.5465 232.6172,217.1489 232.6172,188.9972 L232.6172,47.1772 C232.6172,19.0255 222.1172,7.4536 193.9961,7.4536 C193.9961,7.4536 41.8945,7.4536 41.8945,7.4536 Z" id="Path" fill="#001D26" fill-rule="nonzero"></path>
            <g id="HTCR" fill-rule="nonzero" filter="url(#filter-2)">
                <use fill="black" fill-opacity="1" filter="url(#filter-3)" xlink:href="#path-1"></use>
                <use fill="#ECECEC" xlink:href="#path-1"></use>
            </g>
            <path d="M0,43.05 L0,191.22 C0,214.85 18.2109,234 41.8789,234 L197.1406,234 C220.8086,234 240,214.85 240,191.22 L240,42.78 C240,19.15 220.8086,0 197.1406,0 L41.8789,0 C18.2109,0 0,19.15 0,42.78 L0,43.05 Z M194.0391,10.1341566 C213.1543,10.104 229.8907,25.8213 229.8907,44.9059 L229.8907,187.2088 C229.8907,206.2632 214.4141,223.8658 195.3204,223.8658 L44.6798,223.8658 C25.586,223.8658 10.1095,207.6343 10.1095,188.5799 L10.09,46.9223 C10.09,27.8881 25.5548,10.1645 44.6193,10.1341566 L194.0392,10.1341566 L194.0392,10.1341566 L194.0391,10.1341566 Z" id="Shape" fill="#0097D8" fill-rule="nonzero"></path>
            <g id="Uddeholm-logotyp" transform="translate(80.215923, 39.341545)">
                <g id="Fill-1">
                    <use fill="#0097D8" fill-rule="evenodd" xlink:href="#path-4"></use>
                    <use fill="black" fill-opacity="1" filter="url(#filter-5)" xlink:href="#path-4"></use>
                </g>
                <g id="Fill-2">
                    <use fill="#0097D8" fill-rule="evenodd" xlink:href="#path-6"></use>
                    <use fill="black" fill-opacity="1" filter="url(#filter-7)" xlink:href="#path-6"></use>
                </g>
            </g>
        </g>
    </g>
</svg>