<?xml version="1.0" encoding="UTF-8"?>
<svg width="159px" height="68px" viewBox="0 0 159 68" version="1.1" xmlns="http://www.w3.org/2000/svg" xmlns:xlink="http://www.w3.org/1999/xlink">
    <title>Ignition_logo</title>
    <g id="Page-2" stroke="none" stroke-width="1" fill="none" fill-rule="evenodd">
        <g id="Ignition_logo" transform="translate(0.000000, 0.000000)" fill-rule="nonzero">
            <polygon id="Path" fill="#F5A623" points="4.41075556 27.8608202 4.41075556 57.1092034 0 57.1092034 0 27.8608202"></polygon>
            <path d="M26.3247111,56.6744723 C26.3247111,57.5462469 26.2912,58.3128073 26.2380444,58.9764659 C26.1814222,59.6401245 26.1016889,60.221693 26.0011556,60.725796 C25.6984,62.115548 25.1056,63.3110585 24.2192889,64.3077026 C22.5576,66.2316189 20.2615111,67.187796 17.3495111,67.187796 C14.8881778,67.187796 12.8613333,66.5229812 11.2712889,65.189883 C9.62924444,63.8186302 8.68284444,61.9282437 8.43093333,59.515255 L12.7088,59.515255 C12.8752,60.4251841 13.1456,61.1269973 13.5246222,61.6183706 C14.4074667,62.7664769 15.6959111,63.3411081 17.3864889,63.3411081 C20.5041778,63.3411081 22.0630222,61.4380035 22.0630222,57.6225561 L22.0630222,55.0465432 C20.3712889,56.7762179 18.4207111,57.6410553 16.2124444,57.6410553 C13.7025778,57.6410553 11.6445333,56.7299699 10.0406222,54.9135802 C8.42746667,53.0694417 7.61857778,50.7639796 7.61857778,47.9995062 C7.61857778,45.3090295 8.36853333,43.0243789 9.87075556,41.1432421 C11.4862222,39.1441728 13.6193778,38.1486849 16.2702222,38.1486849 C18.5940444,38.1486849 20.5238222,39.0112099 22.0641778,40.7443532 L22.0641778,38.6597252 L26.3258667,38.6597252 L26.3258667,56.6744723 L26.3247111,56.6744723 Z M22.2340444,47.9324466 C22.2340444,46.1414933 21.7521778,44.7078057 20.7953778,43.6394772 C19.8258667,42.5422437 18.5824889,41.9930488 17.0664,41.9930488 C15.4486222,41.9930488 14.1740444,42.5919603 13.2392,43.7886269 C12.3956444,44.860424 11.9704,46.250176 11.9704,47.9497896 C11.9704,49.6274353 12.3944889,51.0010005 13.2392,52.0727976 C14.1601778,53.2474965 15.4370667,53.8336897 17.0664,53.8336897 C18.6934222,53.8336897 19.9807111,53.2405593 20.9282667,52.0542984 C21.7960889,50.9825013 22.2340444,49.6100923 22.2340444,47.9324466 L22.2340444,47.9324466 Z" id="Shape" fill="#F5A623"></path>
            <path d="M30.5332444,38.6597252 L34.8145778,38.6597252 L34.8145778,40.3639635 C36.3052444,38.8863403 37.9842667,38.1486849 39.8528,38.1486849 C41.9986667,38.1486849 43.6719111,38.8250617 44.8702222,40.1755029 C45.9044444,41.3247654 46.4232889,43.1989651 46.4232889,45.8004144 L46.4232889,57.1103596 L42.1442667,57.1103596 L42.1442667,46.8178701 C42.1442667,45.0037928 41.8888889,43.7470037 41.3850667,43.0521277 C40.8939556,42.3480021 39.9960889,41.9930488 38.6972444,41.9930488 C37.2828444,41.9930488 36.2786667,42.4589973 35.6858667,43.3920504 C35.1057778,44.3135416 34.8145778,45.9229715 34.8145778,48.2168717 L34.8145778,57.1103596 L30.5332444,57.1103596 L30.5332444,38.6597252 Z" id="Path" fill="#F5A623"></path>
            <path d="M49.9928,30.9860279 C49.9928,30.2414353 50.2620444,29.5962759 50.804,29.0551744 C51.3505778,28.5117606 51.9976889,28.2423661 52.7580444,28.2423661 C53.5241778,28.2423661 54.184,28.5117606 54.7236444,29.0551744 C55.2702222,29.5835577 55.5417778,30.2379667 55.5417778,31.0068395 C55.5417778,31.7780247 55.2702222,32.4335899 54.7236444,32.9770037 C54.1967111,33.5181052 53.5449778,33.7921245 52.7765333,33.7921245 C52.0034667,33.7921245 51.3505778,33.5192614 50.804,32.9770037 C50.2620444,32.4324337 49.9928,31.7687751 49.9928,30.9860279 Z M54.8935111,38.6597252 L54.8935111,57.1103596 L50.6329778,57.1103596 L50.6329778,38.6597252 L54.8935111,38.6597252 Z" id="Shape" fill="#F5A623"></path>
            <polygon id="Path" fill="#F5A623" points="64.2985778 42.6358959 64.2985778 57.1103596 60.0357333 57.1103596 60.0357333 42.6358959 58.2168889 42.6358959 58.2168889 38.6597252 60.0357333 38.6597252 60.0357333 31.8971132 64.2985778 31.8971132 64.2985778 38.6597252 67.6092444 38.6597252 67.6092444 42.6358959"></polygon>
            <path d="M69.4743111,30.9860279 C69.4743111,30.2414353 69.7435556,29.5962759 70.2889778,29.0551744 C70.8297778,28.5117606 71.4803556,28.2423661 72.2395556,28.2423661 C73.0103111,28.2423661 73.6643556,28.5117606 74.2086222,29.0551744 C74.7494222,29.5835577 75.0232889,30.2379667 75.0232889,31.0068395 C75.0232889,31.7780247 74.7505778,32.4335899 74.2086222,32.9770037 C73.6782222,33.5181052 73.0288,33.7921245 72.2580444,33.7921245 C71.4884444,33.7921245 70.8309333,33.5192614 70.2889778,32.9770037 C69.7435556,32.4324337 69.4743111,31.7687751 69.4743111,30.9860279 Z M74.3773333,38.6597252 L74.3773333,57.1103596 L70.1168,57.1103596 L70.1168,38.6597252 L74.3773333,38.6597252 Z" id="Shape" fill="#F5A623"></path>
            <path d="M77.7383822,47.7532356 C77.7383822,45.0881954 78.6928711,42.8208878 80.5995378,40.9536253 C82.50736,39.081738 84.8288711,38.1486849 87.5675378,38.1486849 C90.3189156,38.1486849 92.6519822,39.0886752 94.5725156,40.9721245 C96.4630044,42.8532614 97.4140267,45.1668169 97.4140267,47.9070102 C97.4140267,50.6691712 96.4549156,52.9885078 94.5528711,54.8569265 C92.6323378,56.7114707 90.2796267,57.6410553 87.4912711,57.6410553 C84.7260267,57.6410553 82.4091378,56.6975963 80.54176,54.7991165 C78.6709156,52.9306978 77.7383822,50.5836124 77.7383822,47.7532356 L77.7383822,47.7532356 Z M82.0948267,47.830701 C82.0948267,49.6690585 82.5859378,51.1328073 83.5716267,52.2046044 C84.5804267,53.2891197 85.9116267,53.8348459 87.5663822,53.8348459 C89.2303822,53.8348459 90.5662044,53.2995255 91.5611378,52.2231036 C92.5560711,51.1513065 93.0564267,49.7176189 93.0564267,47.9208846 C93.0564267,46.1287751 92.5560711,44.6939313 91.5611378,43.6232904 C90.5523378,42.5364627 89.2176711,41.9930488 87.5663822,41.9930488 C85.9358933,41.9930488 84.6174044,42.5364627 83.6086044,43.6232904 C82.5986489,44.7078057 82.0948267,46.1102759 82.0948267,47.830701 L82.0948267,47.830701 Z" id="Shape" fill="#F5A623"></path>
            <path d="M114.208871,40.9929361 C113.580249,40.1373484 113.023271,39.3673194 112.495182,38.6389136 C111.66896,38.3163339 110.735271,38.1475287 109.68256,38.1475287 C107.811716,38.1475287 106.135004,38.8851841 104.644338,40.3628073 L104.644338,38.658569 L100.365316,38.658569 L100.365316,57.1092034 L104.644338,57.1092034 L104.644338,48.2157155 C104.644338,45.9229715 104.936693,44.3135416 105.516782,43.3908942 C106.109582,42.4578411 107.116071,41.9918926 108.52816,41.9918926 C109.82816,41.9918926 110.721404,42.3468459 111.215982,43.0509715 C111.717493,43.7458475 111.969404,45.0026366 111.969404,46.8167139 L111.969404,57.1092034 L116.250738,57.1092034 L116.250738,45.7992582 C116.250738,44.9679506 116.19296,44.2152646 116.085493,43.5296382 C115.407182,42.6139281 114.765849,41.7490907 114.208871,40.9929361 Z" id="Path" fill="#F5A623"></path>
            <path d="M158.180071,3.28579602 C157.685493,2.18856252 156.905493,1.33759956 155.841227,0.732907126 C154.770027,0.130527094 153.642204,-0.103025241 152.451982,0.041499719 C151.257138,0.18024368 150.229849,1.00808265 149.373582,2.52848523 C149.211804,2.80712935 148.802738,3.66618571 148.138293,5.10912291 C147.470382,6.54859151 146.621049,8.3707622 145.596071,10.575635 C144.573404,12.775883 143.40976,15.2559313 142.114382,18.0099989 C140.813227,20.7629103 139.471627,23.6603467 138.088427,26.6965271 C136.699449,29.7338636 135.301227,32.7977928 133.884516,35.8952517 C132.496693,38.9302759 131.173582,41.8103693 129.925582,44.5320633 C130.52416,44.7887397 131.089227,45.1194128 131.627716,45.5194579 C134.19536,41.7537155 136.942116,37.7451712 139.861049,33.493825 C142.815804,29.1904498 145.559093,25.1610939 148.095538,21.3999764 C150.633138,17.6423274 152.791716,14.4465915 154.573582,11.8220182 C156.35776,9.19628877 157.375804,7.657387 157.628871,7.20762532 C158.48976,5.68606655 158.674649,4.38302951 158.180071,3.28579602 L158.180071,3.28579602 Z" id="Path" fill="#F7901E"></path>
            <path d="M122.802738,44.6060601 C121.992693,41.368701 121.329404,38.7637831 120.82096,36.7878379 C120.302116,34.7922372 119.869938,33.2117123 119.533671,32.0474192 C119.19856,30.8877509 118.931627,30.0333194 118.736338,29.4922179 C118.538738,28.9488041 118.349227,28.485168 118.166649,28.1047783 C117.731004,27.1913806 117.08736,26.5947815 116.241493,26.3161374 C115.393316,26.0374933 114.48736,26.1299893 113.524782,26.5901567 C112.561049,27.0503242 111.919716,27.7001084 111.60656,28.5337284 C111.287627,29.3708169 111.348871,30.2449039 111.779893,31.1583017 C111.963627,31.5386913 112.203982,31.976891 112.503271,32.4717445 C112.801404,32.9654417 113.295982,33.7111905 113.990471,34.7043661 C114.681493,35.6963854 115.64176,37.0190778 116.865493,38.675912 C118.088071,40.3315899 119.71856,42.5029329 121.753493,45.2003467 C122.095538,44.9772002 122.445671,44.7737091 122.802738,44.6060601 Z" id="Path" fill="#F7901E"></path>
            <g id="Group" transform="translate(135.922916, 53.893003)" fill="#F7901E">
                <path d="M1.13686838e-13,1.74008052 C1.13686838e-13,0.772341385 0.771911111,0 1.74835556,0 C2.72595556,0 3.49555556,0.772341385 3.49555556,1.74008052 C3.49555556,2.70897585 2.72595556,3.47900483 1.74835556,3.47900483 C0.771911111,3.47900483 1.13686838e-13,2.70897585 1.13686838e-13,1.74008052 Z M3.22862222,1.74008052 C3.22862222,0.920334944 2.54568889,0.267082126 1.74835556,0.267082126 C0.948711111,0.267082126 0.269244444,0.920334944 0.269244444,1.74008052 C0.269244444,2.55982609 0.948711111,3.21192271 1.74835556,3.21192271 C2.54568889,3.21192271 3.22862222,2.55982609 3.22862222,1.74008052 Z M2.57688889,2.68122705 L2.25448889,2.68122705 L1.68364444,1.8025153 L1.36702222,1.8025153 L1.36702222,2.68122705 L1.09662222,2.68122705 L1.09662222,0.776966184 L1.92862222,0.776966184 C2.27182222,0.776966184 2.60462222,0.870618357 2.60462222,1.27991304 C2.60462222,1.65452174 2.34346667,1.7932657 2.00373333,1.8036715 L2.57688889,2.68122705 Z M1.68364444,1.53427697 C1.92168889,1.53427697 2.33653333,1.58052496 2.33653333,1.27644444 C2.33653333,1.0798905 2.07537778,1.04520451 1.872,1.04520451 L1.36586667,1.04520451 L1.36586667,1.53427697 L1.68364444,1.53427697 Z" id="Shape"></path>
            </g>
            <ellipse id="Oval" fill="#F7901E" cx="126.439271" cy="52.5953999" rx="5.37564444" ry="5.3786409"></ellipse>
        </g>
    </g>
</svg>