<svg id="Lager_1" data-name="Lager 1" xmlns="http://www.w3.org/2000/svg" viewBox="0 0 695.1 142.6">
  <title>logo_uddeholm</title>
  <g>
    <path d="M56,93.9A15,15,0,0,0,71.1,79V.1l-30,21.7V79A14.9,14.9,0,0,0,56,93.9Z" style="fill: #4a9fdc"/>
    <path d="M112.1,0,84,20.5s.3,57.6.3,58.7c-.2,15.4-12.7,27.3-28.1,27.3S28.7,95,28.1,80V78.8c0-.6.1-78.5.1-78.5L.1,20.6V77.9c0,.5-.1,1-.1,1.5.3,30.8,25.3,54,56.2,54s55.3-22.7,56-53.1a6.6,6.6,0,0,0-.1-1.4Z" style="fill: #4a9fdc"/>
    <path d="M535.8,42.4c-3.3-.7-7-.8-10.5-1.2s-10.4-.1-15.1,0a73.5,73.5,0,0,0-11.5,1.2c-3.9,1-9.8,5.1-9.8,15.6V89.4c0,10.5,5.9,14.6,9.8,15.6a63.2,63.2,0,0,0,11.5,1.2h15.1c3.5-.4,7.2-.4,10.5-1.2s9.8-4,9.8-15.6V58C545.6,46.4,539.1,43.3,535.8,42.4ZM524.1,89.7c0,3.5-3.9,5.3-6.7,5.3-4.4-.1-6.7-3.1-6.5-5.3v-32c-.1-2.2,2.2-5.2,6.5-5.2s6.8,1.7,6.7,5.2v32Z" style="fill: #4a9fdc"/>
    <path d="M273,41.3H230.1v63.5h42.8c4.7,0,13.4-3.7,13.4-16.8V56.5C286.3,45,277.7,41.3,273,41.3Zm-8.9,44.8c0,3.5-2.9,6.2-5.6,6.2h-7.4v-40h7.3a5.5,5.5,0,0,1,5.7,5.5Z" style="fill: #4a9fdc"/>
    <path d="M340.2,41.3H297.3v63.5h42.8c4.7,0,13.4-3.7,13.4-16.8V56.5C353.5,45,345,41.3,340.2,41.3Zm-14.5,51h-6.6v-40h6.6c2.7,0,6.4,2,5.4,5.5V86.1C332.1,89.6,328.5,92.3,325.7,92.3Z" style="fill: #4a9fdc"/>
    <path d="M197.1,89.6c0,3.5-3.7,5.3-6.5,5.3-4.4,0-6.6-3.1-6.4-5.4V41.3H162.1V89.4c0,10.5,6,14.5,10,15.5a61.4,61.4,0,0,0,11.5,1.2c4.6.1,10.6.2,15.1,0a74.8,74.8,0,0,0,10.6-1.2c3.3-.9,9.8-4,9.8-15.5V41.3h-22Z" style="fill: #4a9fdc"/>
    <path d="M364.6,41.6l-.2,63.7h44.7v-12h-22v-15h22v-12h-22v-14h22.2c.1,0,.1-10.8.1-10.8Z" style="fill: #4a9fdc"/>
    <path d="M455.8,66.3H442.9v-25H420.6v64h22.3v-27h12.9v26.4h22V41.3h-22Z" style="fill: #4a9fdc"/>
    <path d="M579.1,93.2V41.3H556.7v64h44.3v-12Z" style="fill: #4a9fdc"/>
    <path d="M658,41.4c-.1,0-15.2,35.3-15.3,35.3s-14.2-35.4-14.3-35.4H608.1v64h11V74.7l12.7,30.6h12.7l13.6-30.6v30.6h19V41.4Z" style="fill: #4a9fdc"/>
  </g>
  <g>
    <path d="M471.8,126.3l-6.5,12.3-6.5-12.3h2.4l4.1,8.2,4.1-8.2Z" style="fill: #636569"/>
    <path d="M472.2,132.3a6.3,6.3,0,1,1,6.3,6.3A6.2,6.2,0,0,1,472.2,132.3Zm10.4,0a4.1,4.1,0,1,0-8.2,0,4.1,4.1,0,1,0,8.2,0Z" style="fill: #636569"/>
    <path d="M500.1,136l1.6-1.1a3,3,0,0,0,2.7,1.8,1.9,1.9,0,0,0,2.1-1.7,1.8,1.8,0,0,0-1-1.5l-3.1-1.2a3.1,3.1,0,0,1-1.7-2.9c0-1.8,1.4-3.3,3.8-3.4a3.6,3.6,0,0,1,3.5,2.3l-1.6.8a1.9,1.9,0,0,0-2-1.2c-1.1,0-1.8.6-1.8,1.4a1.5,1.5,0,0,0,1.1,1.4l2.9,1.3a3,3,0,0,1,1.9,2.9,3.8,3.8,0,0,1-4.1,3.7A4.8,4.8,0,0,1,500.1,136Z" style="fill: #636569"/>
    <path d="M534.3,138.3V121.2h2.1v17.1Z" style="fill: #636569"/>
    <path d="M554.2,122.5a1.5,1.5,0,0,1,1.6-1.4,1.4,1.4,0,0,1,1.4,1.4,1.4,1.4,0,0,1-1.4,1.5A1.5,1.5,0,0,1,554.2,122.5Zm.3,15.8v-12h2.2v12Z" style="fill: #636569"/>
    <path d="M560.3,126.4h2.1v1.7a4.2,4.2,0,0,1,3.8-2.1c2.4,0,4.7,1.7,4.7,5.1v7.2h-2.2v-6.6c0-2.4-1.3-3.7-3-3.7s-3.3,1.5-3.3,3.7v6.6h-2.1Z" style="fill: #636569"/>
    <path d="M605.1,132.3a6.3,6.3,0,1,1,6.3,6.3A6.2,6.2,0,0,1,605.1,132.3Zm10.4,0a4.1,4.1,0,1,0-8.2,0,4.1,4.1,0,1,0,8.2,0Z" style="fill: #636569"/>
    <path d="M638,131.2v7.1h-2.1v-6.8c0-2.2-1.2-3.5-2.8-3.5s-3,1.5-3,3.6v6.7h-2v-6.7c0-2.3-1-3.6-2.7-3.6s-2.9,1.4-2.9,3.6v6.7h-2.2V126.4h2.1v1.7a3.8,3.8,0,0,1,3.4-2.1,3.9,3.9,0,0,1,3.5,2.3,4.5,4.5,0,0,1,4-2.3C636,126,638,128,638,131.2Z" style="fill: #636569"/>
    <path d="M671,126.4h2.1v1.7a4,4,0,0,1,3.7-2.1c2.5,0,4.6,1.7,4.6,5.1v7.2h-2.1v-6.6c0-2.4-1.2-3.7-2.9-3.7s-3.3,1.5-3.3,3.7v6.6H671Z" style="fill: #636569"/>
    <path d="M695.1,126.3l-7.3,16.3h-2.2l2.3-5.2-4.8-11.1h2.3L689,135l3.8-8.7Z" style="fill: #636569"/>
    <path d="M451.3,126.4h-1.8v1.5a5.4,5.4,0,0,0-4.2-1.8,5.8,5.8,0,0,0-5.9,6.1c0,3.6,2.5,6.4,5.9,6.4a5.7,5.7,0,0,0,4.2-1.7v1.4h1.8Zm-5.7,10.2a4,4,0,0,1-4.1-4.3,4.1,4.1,0,0,1,8-1.5v3A4,4,0,0,1,445.6,136.6Z" style="fill: #636569"/>
    <path d="M530.7,126.3h-2v1.6a5.4,5.4,0,0,0-4.2-1.8,5.8,5.8,0,0,0-5.9,6.1c0,3.6,2.5,6.4,5.9,6.4a5.7,5.7,0,0,0,4.2-1.7v1.4h2Zm-5.9,10.3a4,4,0,0,1-4.1-4.3,4.1,4.1,0,0,1,8-1.5v3A4,4,0,0,1,524.8,136.6Z" style="fill: #636569"/>
    <path d="M602.3,135.1a4.7,4.7,0,0,1-3.1,1.4,4.3,4.3,0,1,1,3.2-7.1l1.5-1.4a6,6,0,0,0-4.6-2,6.3,6.3,0,1,0-.1,12.5,6.3,6.3,0,0,0,4.6-2Z" style="fill: #636569"/>
    <path d="M546.1,126.1a5.8,5.8,0,0,0-4.1,1.8v-1.5h-2v16.2h2v-5.8a5.6,5.6,0,0,0,4.1,1.8,6.3,6.3,0,0,0,0-12.5Zm-.3,10.5a3.7,3.7,0,0,1-3.8-2.4v-3.8a3.9,3.9,0,0,1,3.8-2.4,4.1,4.1,0,0,1,4.1,4.3A4,4,0,0,1,545.8,136.6Z" style="fill: #636569"/>
    <path d="M515.3,136.4c-1.3-.1-1.5-.9-1.5-1.7v-6.5h3.3l.5-1.8h-3.8v-3.7l-2,.9v2.8h-2.4l.5,1.8h1.9v6.5c0,2,1,3.6,3.4,3.6h2.1v-1.9Z" style="fill: #636569"/>
    <path d="M492.8,138.4a5.9,5.9,0,0,1-6.1-6.1c0-3.7,2.5-6.3,6-6.3a5.8,5.8,0,0,1,5.7,5.7v1.1h-9.6a3.9,3.9,0,0,0,4.1,3.7,5.5,5.5,0,0,0,3.4-1.4l1.4,1.3a6.5,6.5,0,0,1-4.9,2Zm3.7-7.2h0a3.6,3.6,0,0,0-3.8-3.4,3.8,3.8,0,0,0-3.9,3.4h7.7Z" style="fill: #636569"/>
    <path d="M647.6,126.1a5.8,5.8,0,0,0-4.1,1.8v-1.5h-2.1v16.2h2.1v-5.8a5.4,5.4,0,0,0,4.1,1.8,6.3,6.3,0,0,0,0-12.5Zm-.3,10.5a3.7,3.7,0,0,1-3.8-2.4v-3.8a3.9,3.9,0,0,1,3.8-2.4,4.1,4.1,0,0,1,4.1,4.3A4,4,0,0,1,647.3,136.6Z" style="fill: #636569"/>
    <path d="M579.7,138.4a5.9,5.9,0,0,1-6.1-6.1c0-3.7,2.5-6.3,6-6.3a5.7,5.7,0,0,1,5.6,5.7v1.1h-9.5a3.9,3.9,0,0,0,4,3.7,5.8,5.8,0,0,0,3.5-1.4l1.3,1.3a6.2,6.2,0,0,1-4.8,2Zm3.7-7.2h0a3.7,3.7,0,0,0-3.8-3.4,3.9,3.9,0,0,0-4,3.4h7.8Z" style="fill: #636569"/>
    <path d="M667.5,126.3h-2.1v1.6a5.1,5.1,0,0,0-4.1-1.8,5.9,5.9,0,0,0-6,6.1,6.1,6.1,0,0,0,6,6.4,5.3,5.3,0,0,0,4.1-1.7v1.4h2.1Zm-6,10.3c-2.5,0-4-1.9-4-4.3a4,4,0,0,1,4-4.3,3.9,3.9,0,0,1,3.9,2.8v3A3.8,3.8,0,0,1,661.5,136.6Z" style="fill: #636569"/>
  </g>
</svg>
